<svg xmlns="http://www.w3.org/2000/svg" viewBox="0 0 111.51 86.74" width="164px" height="128px">
  <defs>
    <style>.cls-1{fill:#010101;}.cls-2{fill:#231f20;}</style>
  </defs>
  <title>Asset 1</title>
  <g id="Layer_2" data-name="Layer 2">
    <g id="Layer_1-2" data-name="Layer 1">
      <circle class="cls-1" cx="42.5" cy="18.07" r="3.01"/>
      <path class="cls-2"
            d="M66.69,4.8C51.08-.4,31.15-4.52,13.81,10S.38,71.14.38,79.81c0,0,8.23,6.93,23.62,6.93s23.83-8.23,23.83-8.23-.65-22.79,2.82-30.37S69,31.6,79,27.77c5.78-2.21,32.47-9.26,32.47-11.3S82.29,10,66.69,4.8ZM21.34,14.44C7.48,26.6,8.91,72.26,8.91,74S5.2,76.63,5.2,72c0-.8-1.77-46.82,11.89-58.27A37.27,37.27,0,0,1,42,4.77c.88,0,1.76,0,2.62.07A37.35,37.35,0,0,0,21.34,14.44ZM42.5,23.36a5.29,5.29,0,1,1,5.29-5.29A5.29,5.29,0,0,1,42.5,23.36Z"/>
    </g>
  </g>
</svg>